<?xml version="1.0" encoding="utf-8" standalone="no"?>
<!DOCTYPE svg PUBLIC "-//W3C//DTD SVG 1.1//EN"
  "http://www.w3.org/Graphics/SVG/1.1/DTD/svg11.dtd">
<svg xmlns:xlink="http://www.w3.org/1999/xlink" width="720pt" height="288pt" viewBox="0 0 720 288" xmlns="http://www.w3.org/2000/svg" version="1.1">
 <metadata>
  <rdf:RDF xmlns:dc="http://purl.org/dc/elements/1.1/" xmlns:cc="http://creativecommons.org/ns#" xmlns:rdf="http://www.w3.org/1999/02/22-rdf-syntax-ns#">
   <cc:Work>
    <dc:type rdf:resource="http://purl.org/dc/dcmitype/StillImage"/>
    <dc:date>2025-11-26T18:06:11.085620</dc:date>
    <dc:format>image/svg+xml</dc:format>
    <dc:creator>
     <cc:Agent>
      <dc:title>Matplotlib v3.10.7, https://matplotlib.org/</dc:title>
     </cc:Agent>
    </dc:creator>
   </cc:Work>
  </rdf:RDF>
 </metadata>
 <defs>
  <style type="text/css">*{stroke-linejoin: round; stroke-linecap: butt}</style>
 </defs>
 <g id="figure_1">
  <g id="patch_1">
   <path d="M 0 288 
L 720 288 
L 720 0 
L 0 0 
z
" style="fill: #ffffff"/>
  </g>
  <g id="axes_1">
   <g id="patch_2">
    <path d="M 50.87 179.43427 
L 709.2 179.43427 
L 709.2 26.88 
L 50.87 26.88 
z
" style="fill: #ffffff"/>
   </g>
   <g id="patch_3">
    <path d="M 80.794091 179.43427 
L 125.126077 179.43427 
L 125.126077 40.74857 
L 80.794091 40.74857 
z
" clip-path="url(#ped6357c65d)" style="fill: #55a868"/>
   </g>
   <g id="patch_4">
    <path d="M 136.209074 179.43427 
L 180.541061 179.43427 
L 180.541061 40.74857 
L 136.209074 40.74857 
z
" clip-path="url(#ped6357c65d)" style="fill: #55a868"/>
   </g>
   <g id="patch_5">
    <path d="M 191.624057 179.43427 
L 235.956044 179.43427 
L 235.956044 40.74857 
L 191.624057 40.74857 
z
" clip-path="url(#ped6357c65d)" style="fill: #55a868"/>
   </g>
   <g id="patch_6">
    <path d="M 247.03904 179.43427 
L 291.371027 179.43427 
L 291.371027 40.74857 
L 247.03904 40.74857 
z
" clip-path="url(#ped6357c65d)" style="fill: #55a868"/>
   </g>
   <g id="patch_7">
    <path d="M 302.454024 179.43427 
L 346.78601 179.43427 
L 346.78601 40.74857 
L 302.454024 40.74857 
z
" clip-path="url(#ped6357c65d)" style="fill: #55a868"/>
   </g>
   <g id="patch_8">
    <path d="M 357.869007 179.43427 
L 402.200993 179.43427 
L 402.200993 40.74857 
L 357.869007 40.74857 
z
" clip-path="url(#ped6357c65d)" style="fill: #55a868"/>
   </g>
   <g id="patch_9">
    <path d="M 413.28399 179.43427 
L 457.615976 179.43427 
L 457.615976 40.74857 
L 413.28399 40.74857 
z
" clip-path="url(#ped6357c65d)" style="fill: #55a868"/>
   </g>
   <g id="patch_10">
    <path d="M 468.698973 179.43427 
L 513.03096 179.43427 
L 513.03096 40.74857 
L 468.698973 40.74857 
z
" clip-path="url(#ped6357c65d)" style="fill: #55a868"/>
   </g>
   <g id="patch_11">
    <path d="M 524.113956 179.43427 
L 568.445943 179.43427 
L 568.445943 40.74857 
L 524.113956 40.74857 
z
" clip-path="url(#ped6357c65d)" style="fill: #55a868"/>
   </g>
   <g id="patch_12">
    <path d="M 579.528939 179.43427 
L 623.860926 179.43427 
L 623.860926 40.74857 
L 579.528939 40.74857 
z
" clip-path="url(#ped6357c65d)" style="fill: #55a868"/>
   </g>
   <g id="patch_13">
    <path d="M 634.943923 179.43427 
L 679.275909 179.43427 
L 679.275909 73.253031 
L 634.943923 73.253031 
z
" clip-path="url(#ped6357c65d)" style="fill: #55a868"/>
   </g>
   <g id="matplotlib.axis_1">
    <g id="xtick_1">
     <g id="line2d_1">
      <defs>
       <path id="m8da9d94917" d="M 0 0 
L 0 3.5 
" style="stroke: #000000; stroke-width: 0.8"/>
      </defs>
      <g>
       <use xlink:href="#m8da9d94917" x="102.960084" y="179.43427" style="stroke: #000000; stroke-width: 0.8"/>
      </g>
     </g>
     <g id="text_1">
      <!-- AC-gliosis-like 1 -->
      <g transform="translate(77.064508 247.500674) rotate(-45) scale(0.1 -0.1)">
       <defs>
        <path id="DejaVuSans-41" d="M 2188 4044 
L 1331 1722 
L 3047 1722 
L 2188 4044 
z
M 1831 4666 
L 2547 4666 
L 4325 0 
L 3669 0 
L 3244 1197 
L 1141 1197 
L 716 0 
L 50 0 
L 1831 4666 
z
" transform="scale(0.015625)"/>
        <path id="DejaVuSans-43" d="M 4122 4306 
L 4122 3641 
Q 3803 3938 3442 4084 
Q 3081 4231 2675 4231 
Q 1875 4231 1450 3742 
Q 1025 3253 1025 2328 
Q 1025 1406 1450 917 
Q 1875 428 2675 428 
Q 3081 428 3442 575 
Q 3803 722 4122 1019 
L 4122 359 
Q 3791 134 3420 21 
Q 3050 -91 2638 -91 
Q 1578 -91 968 557 
Q 359 1206 359 2328 
Q 359 3453 968 4101 
Q 1578 4750 2638 4750 
Q 3056 4750 3426 4639 
Q 3797 4528 4122 4306 
z
" transform="scale(0.015625)"/>
        <path id="DejaVuSans-2d" d="M 313 2009 
L 1997 2009 
L 1997 1497 
L 313 1497 
L 313 2009 
z
" transform="scale(0.015625)"/>
        <path id="DejaVuSans-67" d="M 2906 1791 
Q 2906 2416 2648 2759 
Q 2391 3103 1925 3103 
Q 1463 3103 1205 2759 
Q 947 2416 947 1791 
Q 947 1169 1205 825 
Q 1463 481 1925 481 
Q 2391 481 2648 825 
Q 2906 1169 2906 1791 
z
M 3481 434 
Q 3481 -459 3084 -895 
Q 2688 -1331 1869 -1331 
Q 1566 -1331 1297 -1286 
Q 1028 -1241 775 -1147 
L 775 -588 
Q 1028 -725 1275 -790 
Q 1522 -856 1778 -856 
Q 2344 -856 2625 -561 
Q 2906 -266 2906 331 
L 2906 616 
Q 2728 306 2450 153 
Q 2172 0 1784 0 
Q 1141 0 747 490 
Q 353 981 353 1791 
Q 353 2603 747 3093 
Q 1141 3584 1784 3584 
Q 2172 3584 2450 3431 
Q 2728 3278 2906 2969 
L 2906 3500 
L 3481 3500 
L 3481 434 
z
" transform="scale(0.015625)"/>
        <path id="DejaVuSans-6c" d="M 603 4863 
L 1178 4863 
L 1178 0 
L 603 0 
L 603 4863 
z
" transform="scale(0.015625)"/>
        <path id="DejaVuSans-69" d="M 603 3500 
L 1178 3500 
L 1178 0 
L 603 0 
L 603 3500 
z
M 603 4863 
L 1178 4863 
L 1178 4134 
L 603 4134 
L 603 4863 
z
" transform="scale(0.015625)"/>
        <path id="DejaVuSans-6f" d="M 1959 3097 
Q 1497 3097 1228 2736 
Q 959 2375 959 1747 
Q 959 1119 1226 758 
Q 1494 397 1959 397 
Q 2419 397 2687 759 
Q 2956 1122 2956 1747 
Q 2956 2369 2687 2733 
Q 2419 3097 1959 3097 
z
M 1959 3584 
Q 2709 3584 3137 3096 
Q 3566 2609 3566 1747 
Q 3566 888 3137 398 
Q 2709 -91 1959 -91 
Q 1206 -91 779 398 
Q 353 888 353 1747 
Q 353 2609 779 3096 
Q 1206 3584 1959 3584 
z
" transform="scale(0.015625)"/>
        <path id="DejaVuSans-73" d="M 2834 3397 
L 2834 2853 
Q 2591 2978 2328 3040 
Q 2066 3103 1784 3103 
Q 1356 3103 1142 2972 
Q 928 2841 928 2578 
Q 928 2378 1081 2264 
Q 1234 2150 1697 2047 
L 1894 2003 
Q 2506 1872 2764 1633 
Q 3022 1394 3022 966 
Q 3022 478 2636 193 
Q 2250 -91 1575 -91 
Q 1294 -91 989 -36 
Q 684 19 347 128 
L 347 722 
Q 666 556 975 473 
Q 1284 391 1588 391 
Q 1994 391 2212 530 
Q 2431 669 2431 922 
Q 2431 1156 2273 1281 
Q 2116 1406 1581 1522 
L 1381 1569 
Q 847 1681 609 1914 
Q 372 2147 372 2553 
Q 372 3047 722 3315 
Q 1072 3584 1716 3584 
Q 2034 3584 2315 3537 
Q 2597 3491 2834 3397 
z
" transform="scale(0.015625)"/>
        <path id="DejaVuSans-6b" d="M 581 4863 
L 1159 4863 
L 1159 1991 
L 2875 3500 
L 3609 3500 
L 1753 1863 
L 3688 0 
L 2938 0 
L 1159 1709 
L 1159 0 
L 581 0 
L 581 4863 
z
" transform="scale(0.015625)"/>
        <path id="DejaVuSans-65" d="M 3597 1894 
L 3597 1613 
L 953 1613 
Q 991 1019 1311 708 
Q 1631 397 2203 397 
Q 2534 397 2845 478 
Q 3156 559 3463 722 
L 3463 178 
Q 3153 47 2828 -22 
Q 2503 -91 2169 -91 
Q 1331 -91 842 396 
Q 353 884 353 1716 
Q 353 2575 817 3079 
Q 1281 3584 2069 3584 
Q 2775 3584 3186 3129 
Q 3597 2675 3597 1894 
z
M 3022 2063 
Q 3016 2534 2758 2815 
Q 2500 3097 2075 3097 
Q 1594 3097 1305 2825 
Q 1016 2553 972 2059 
L 3022 2063 
z
" transform="scale(0.015625)"/>
        <path id="DejaVuSans-20" transform="scale(0.015625)"/>
        <path id="DejaVuSans-31" d="M 794 531 
L 1825 531 
L 1825 4091 
L 703 3866 
L 703 4441 
L 1819 4666 
L 2450 4666 
L 2450 531 
L 3481 531 
L 3481 0 
L 794 0 
L 794 531 
z
" transform="scale(0.015625)"/>
       </defs>
       <use xlink:href="#DejaVuSans-41"/>
       <use xlink:href="#DejaVuSans-43" transform="translate(66.658203 0)"/>
       <use xlink:href="#DejaVuSans-2d" transform="translate(136.482422 0)"/>
       <use xlink:href="#DejaVuSans-67" transform="translate(172.566406 0)"/>
       <use xlink:href="#DejaVuSans-6c" transform="translate(236.042969 0)"/>
       <use xlink:href="#DejaVuSans-69" transform="translate(263.826172 0)"/>
       <use xlink:href="#DejaVuSans-6f" transform="translate(291.609375 0)"/>
       <use xlink:href="#DejaVuSans-73" transform="translate(352.791016 0)"/>
       <use xlink:href="#DejaVuSans-69" transform="translate(404.890625 0)"/>
       <use xlink:href="#DejaVuSans-73" transform="translate(432.673828 0)"/>
       <use xlink:href="#DejaVuSans-2d" transform="translate(484.773438 0)"/>
       <use xlink:href="#DejaVuSans-6c" transform="translate(520.857422 0)"/>
       <use xlink:href="#DejaVuSans-69" transform="translate(548.640625 0)"/>
       <use xlink:href="#DejaVuSans-6b" transform="translate(576.423828 0)"/>
       <use xlink:href="#DejaVuSans-65" transform="translate(630.708984 0)"/>
       <use xlink:href="#DejaVuSans-20" transform="translate(692.232422 0)"/>
       <use xlink:href="#DejaVuSans-31" transform="translate(724.019531 0)"/>
      </g>
     </g>
    </g>
    <g id="xtick_2">
     <g id="line2d_2">
      <g>
       <use xlink:href="#m8da9d94917" x="158.375067" y="179.43427" style="stroke: #000000; stroke-width: 0.8"/>
      </g>
     </g>
     <g id="text_2">
      <!-- AC-gliosis-like 2 -->
      <g transform="translate(132.479491 247.500674) rotate(-45) scale(0.1 -0.1)">
       <defs>
        <path id="DejaVuSans-32" d="M 1228 531 
L 3431 531 
L 3431 0 
L 469 0 
L 469 531 
Q 828 903 1448 1529 
Q 2069 2156 2228 2338 
Q 2531 2678 2651 2914 
Q 2772 3150 2772 3378 
Q 2772 3750 2511 3984 
Q 2250 4219 1831 4219 
Q 1534 4219 1204 4116 
Q 875 4013 500 3803 
L 500 4441 
Q 881 4594 1212 4672 
Q 1544 4750 1819 4750 
Q 2544 4750 2975 4387 
Q 3406 4025 3406 3419 
Q 3406 3131 3298 2873 
Q 3191 2616 2906 2266 
Q 2828 2175 2409 1742 
Q 1991 1309 1228 531 
z
" transform="scale(0.015625)"/>
       </defs>
       <use xlink:href="#DejaVuSans-41"/>
       <use xlink:href="#DejaVuSans-43" transform="translate(66.658203 0)"/>
       <use xlink:href="#DejaVuSans-2d" transform="translate(136.482422 0)"/>
       <use xlink:href="#DejaVuSans-67" transform="translate(172.566406 0)"/>
       <use xlink:href="#DejaVuSans-6c" transform="translate(236.042969 0)"/>
       <use xlink:href="#DejaVuSans-69" transform="translate(263.826172 0)"/>
       <use xlink:href="#DejaVuSans-6f" transform="translate(291.609375 0)"/>
       <use xlink:href="#DejaVuSans-73" transform="translate(352.791016 0)"/>
       <use xlink:href="#DejaVuSans-69" transform="translate(404.890625 0)"/>
       <use xlink:href="#DejaVuSans-73" transform="translate(432.673828 0)"/>
       <use xlink:href="#DejaVuSans-2d" transform="translate(484.773438 0)"/>
       <use xlink:href="#DejaVuSans-6c" transform="translate(520.857422 0)"/>
       <use xlink:href="#DejaVuSans-69" transform="translate(548.640625 0)"/>
       <use xlink:href="#DejaVuSans-6b" transform="translate(576.423828 0)"/>
       <use xlink:href="#DejaVuSans-65" transform="translate(630.708984 0)"/>
       <use xlink:href="#DejaVuSans-20" transform="translate(692.232422 0)"/>
       <use xlink:href="#DejaVuSans-32" transform="translate(724.019531 0)"/>
      </g>
     </g>
    </g>
    <g id="xtick_3">
     <g id="line2d_3">
      <g>
       <use xlink:href="#m8da9d94917" x="213.790051" y="179.43427" style="stroke: #000000; stroke-width: 0.8"/>
      </g>
     </g>
     <g id="text_3">
      <!-- AC-neuronal-like -->
      <g transform="translate(186.722224 249.845175) rotate(-45) scale(0.1 -0.1)">
       <defs>
        <path id="DejaVuSans-6e" d="M 3513 2113 
L 3513 0 
L 2938 0 
L 2938 2094 
Q 2938 2591 2744 2837 
Q 2550 3084 2163 3084 
Q 1697 3084 1428 2787 
Q 1159 2491 1159 1978 
L 1159 0 
L 581 0 
L 581 3500 
L 1159 3500 
L 1159 2956 
Q 1366 3272 1645 3428 
Q 1925 3584 2291 3584 
Q 2894 3584 3203 3211 
Q 3513 2838 3513 2113 
z
" transform="scale(0.015625)"/>
        <path id="DejaVuSans-75" d="M 544 1381 
L 544 3500 
L 1119 3500 
L 1119 1403 
Q 1119 906 1312 657 
Q 1506 409 1894 409 
Q 2359 409 2629 706 
Q 2900 1003 2900 1516 
L 2900 3500 
L 3475 3500 
L 3475 0 
L 2900 0 
L 2900 538 
Q 2691 219 2414 64 
Q 2138 -91 1772 -91 
Q 1169 -91 856 284 
Q 544 659 544 1381 
z
M 1991 3584 
L 1991 3584 
z
" transform="scale(0.015625)"/>
        <path id="DejaVuSans-72" d="M 2631 2963 
Q 2534 3019 2420 3045 
Q 2306 3072 2169 3072 
Q 1681 3072 1420 2755 
Q 1159 2438 1159 1844 
L 1159 0 
L 581 0 
L 581 3500 
L 1159 3500 
L 1159 2956 
Q 1341 3275 1631 3429 
Q 1922 3584 2338 3584 
Q 2397 3584 2469 3576 
Q 2541 3569 2628 3553 
L 2631 2963 
z
" transform="scale(0.015625)"/>
        <path id="DejaVuSans-61" d="M 2194 1759 
Q 1497 1759 1228 1600 
Q 959 1441 959 1056 
Q 959 750 1161 570 
Q 1363 391 1709 391 
Q 2188 391 2477 730 
Q 2766 1069 2766 1631 
L 2766 1759 
L 2194 1759 
z
M 3341 1997 
L 3341 0 
L 2766 0 
L 2766 531 
Q 2569 213 2275 61 
Q 1981 -91 1556 -91 
Q 1019 -91 701 211 
Q 384 513 384 1019 
Q 384 1609 779 1909 
Q 1175 2209 1959 2209 
L 2766 2209 
L 2766 2266 
Q 2766 2663 2505 2880 
Q 2244 3097 1772 3097 
Q 1472 3097 1187 3025 
Q 903 2953 641 2809 
L 641 3341 
Q 956 3463 1253 3523 
Q 1550 3584 1831 3584 
Q 2591 3584 2966 3190 
Q 3341 2797 3341 1997 
z
" transform="scale(0.015625)"/>
       </defs>
       <use xlink:href="#DejaVuSans-41"/>
       <use xlink:href="#DejaVuSans-43" transform="translate(66.658203 0)"/>
       <use xlink:href="#DejaVuSans-2d" transform="translate(136.482422 0)"/>
       <use xlink:href="#DejaVuSans-6e" transform="translate(172.566406 0)"/>
       <use xlink:href="#DejaVuSans-65" transform="translate(235.945312 0)"/>
       <use xlink:href="#DejaVuSans-75" transform="translate(297.46875 0)"/>
       <use xlink:href="#DejaVuSans-72" transform="translate(360.847656 0)"/>
       <use xlink:href="#DejaVuSans-6f" transform="translate(399.710938 0)"/>
       <use xlink:href="#DejaVuSans-6e" transform="translate(460.892578 0)"/>
       <use xlink:href="#DejaVuSans-61" transform="translate(524.271484 0)"/>
       <use xlink:href="#DejaVuSans-6c" transform="translate(585.550781 0)"/>
       <use xlink:href="#DejaVuSans-2d" transform="translate(613.333984 0)"/>
       <use xlink:href="#DejaVuSans-6c" transform="translate(649.417969 0)"/>
       <use xlink:href="#DejaVuSans-69" transform="translate(677.201172 0)"/>
       <use xlink:href="#DejaVuSans-6b" transform="translate(704.984375 0)"/>
       <use xlink:href="#DejaVuSans-65" transform="translate(759.269531 0)"/>
      </g>
     </g>
    </g>
    <g id="xtick_4">
     <g id="line2d_4">
      <g>
       <use xlink:href="#m8da9d94917" x="269.205034" y="179.43427" style="stroke: #000000; stroke-width: 0.8"/>
      </g>
     </g>
     <g id="text_4">
      <!-- NPC-neuronal-like 1 -->
      <g transform="translate(236.343903 261.431783) rotate(-45) scale(0.1 -0.1)">
       <defs>
        <path id="DejaVuSans-4e" d="M 628 4666 
L 1478 4666 
L 3547 763 
L 3547 4666 
L 4159 4666 
L 4159 0 
L 3309 0 
L 1241 3903 
L 1241 0 
L 628 0 
L 628 4666 
z
" transform="scale(0.015625)"/>
        <path id="DejaVuSans-50" d="M 1259 4147 
L 1259 2394 
L 2053 2394 
Q 2494 2394 2734 2622 
Q 2975 2850 2975 3272 
Q 2975 3691 2734 3919 
Q 2494 4147 2053 4147 
L 1259 4147 
z
M 628 4666 
L 2053 4666 
Q 2838 4666 3239 4311 
Q 3641 3956 3641 3272 
Q 3641 2581 3239 2228 
Q 2838 1875 2053 1875 
L 1259 1875 
L 1259 0 
L 628 0 
L 628 4666 
z
" transform="scale(0.015625)"/>
       </defs>
       <use xlink:href="#DejaVuSans-4e"/>
       <use xlink:href="#DejaVuSans-50" transform="translate(74.804688 0)"/>
       <use xlink:href="#DejaVuSans-43" transform="translate(135.107422 0)"/>
       <use xlink:href="#DejaVuSans-2d" transform="translate(204.931641 0)"/>
       <use xlink:href="#DejaVuSans-6e" transform="translate(241.015625 0)"/>
       <use xlink:href="#DejaVuSans-65" transform="translate(304.394531 0)"/>
       <use xlink:href="#DejaVuSans-75" transform="translate(365.917969 0)"/>
       <use xlink:href="#DejaVuSans-72" transform="translate(429.296875 0)"/>
       <use xlink:href="#DejaVuSans-6f" transform="translate(468.160156 0)"/>
       <use xlink:href="#DejaVuSans-6e" transform="translate(529.341797 0)"/>
       <use xlink:href="#DejaVuSans-61" transform="translate(592.720703 0)"/>
       <use xlink:href="#DejaVuSans-6c" transform="translate(654 0)"/>
       <use xlink:href="#DejaVuSans-2d" transform="translate(681.783203 0)"/>
       <use xlink:href="#DejaVuSans-6c" transform="translate(717.867188 0)"/>
       <use xlink:href="#DejaVuSans-69" transform="translate(745.650391 0)"/>
       <use xlink:href="#DejaVuSans-6b" transform="translate(773.433594 0)"/>
       <use xlink:href="#DejaVuSans-65" transform="translate(827.71875 0)"/>
       <use xlink:href="#DejaVuSans-20" transform="translate(889.242188 0)"/>
       <use xlink:href="#DejaVuSans-31" transform="translate(921.029297 0)"/>
      </g>
     </g>
    </g>
    <g id="xtick_5">
     <g id="line2d_5">
      <g>
       <use xlink:href="#m8da9d94917" x="324.620017" y="179.43427" style="stroke: #000000; stroke-width: 0.8"/>
      </g>
     </g>
     <g id="text_5">
      <!-- NPC-neuronal-like 2 -->
      <g transform="translate(291.758886 261.431783) rotate(-45) scale(0.1 -0.1)">
       <use xlink:href="#DejaVuSans-4e"/>
       <use xlink:href="#DejaVuSans-50" transform="translate(74.804688 0)"/>
       <use xlink:href="#DejaVuSans-43" transform="translate(135.107422 0)"/>
       <use xlink:href="#DejaVuSans-2d" transform="translate(204.931641 0)"/>
       <use xlink:href="#DejaVuSans-6e" transform="translate(241.015625 0)"/>
       <use xlink:href="#DejaVuSans-65" transform="translate(304.394531 0)"/>
       <use xlink:href="#DejaVuSans-75" transform="translate(365.917969 0)"/>
       <use xlink:href="#DejaVuSans-72" transform="translate(429.296875 0)"/>
       <use xlink:href="#DejaVuSans-6f" transform="translate(468.160156 0)"/>
       <use xlink:href="#DejaVuSans-6e" transform="translate(529.341797 0)"/>
       <use xlink:href="#DejaVuSans-61" transform="translate(592.720703 0)"/>
       <use xlink:href="#DejaVuSans-6c" transform="translate(654 0)"/>
       <use xlink:href="#DejaVuSans-2d" transform="translate(681.783203 0)"/>
       <use xlink:href="#DejaVuSans-6c" transform="translate(717.867188 0)"/>
       <use xlink:href="#DejaVuSans-69" transform="translate(745.650391 0)"/>
       <use xlink:href="#DejaVuSans-6b" transform="translate(773.433594 0)"/>
       <use xlink:href="#DejaVuSans-65" transform="translate(827.71875 0)"/>
       <use xlink:href="#DejaVuSans-20" transform="translate(889.242188 0)"/>
       <use xlink:href="#DejaVuSans-32" transform="translate(921.029297 0)"/>
      </g>
     </g>
    </g>
    <g id="xtick_6">
     <g id="line2d_6">
      <g>
       <use xlink:href="#m8da9d94917" x="380.035" y="179.43427" style="stroke: #000000; stroke-width: 0.8"/>
      </g>
     </g>
     <g id="text_6">
      <!-- NPC-neuronal-like 3 -->
      <g transform="translate(347.17387 261.431783) rotate(-45) scale(0.1 -0.1)">
       <defs>
        <path id="DejaVuSans-33" d="M 2597 2516 
Q 3050 2419 3304 2112 
Q 3559 1806 3559 1356 
Q 3559 666 3084 287 
Q 2609 -91 1734 -91 
Q 1441 -91 1130 -33 
Q 819 25 488 141 
L 488 750 
Q 750 597 1062 519 
Q 1375 441 1716 441 
Q 2309 441 2620 675 
Q 2931 909 2931 1356 
Q 2931 1769 2642 2001 
Q 2353 2234 1838 2234 
L 1294 2234 
L 1294 2753 
L 1863 2753 
Q 2328 2753 2575 2939 
Q 2822 3125 2822 3475 
Q 2822 3834 2567 4026 
Q 2313 4219 1838 4219 
Q 1578 4219 1281 4162 
Q 984 4106 628 3988 
L 628 4550 
Q 988 4650 1302 4700 
Q 1616 4750 1894 4750 
Q 2613 4750 3031 4423 
Q 3450 4097 3450 3541 
Q 3450 3153 3228 2886 
Q 3006 2619 2597 2516 
z
" transform="scale(0.015625)"/>
       </defs>
       <use xlink:href="#DejaVuSans-4e"/>
       <use xlink:href="#DejaVuSans-50" transform="translate(74.804688 0)"/>
       <use xlink:href="#DejaVuSans-43" transform="translate(135.107422 0)"/>
       <use xlink:href="#DejaVuSans-2d" transform="translate(204.931641 0)"/>
       <use xlink:href="#DejaVuSans-6e" transform="translate(241.015625 0)"/>
       <use xlink:href="#DejaVuSans-65" transform="translate(304.394531 0)"/>
       <use xlink:href="#DejaVuSans-75" transform="translate(365.917969 0)"/>
       <use xlink:href="#DejaVuSans-72" transform="translate(429.296875 0)"/>
       <use xlink:href="#DejaVuSans-6f" transform="translate(468.160156 0)"/>
       <use xlink:href="#DejaVuSans-6e" transform="translate(529.341797 0)"/>
       <use xlink:href="#DejaVuSans-61" transform="translate(592.720703 0)"/>
       <use xlink:href="#DejaVuSans-6c" transform="translate(654 0)"/>
       <use xlink:href="#DejaVuSans-2d" transform="translate(681.783203 0)"/>
       <use xlink:href="#DejaVuSans-6c" transform="translate(717.867188 0)"/>
       <use xlink:href="#DejaVuSans-69" transform="translate(745.650391 0)"/>
       <use xlink:href="#DejaVuSans-6b" transform="translate(773.433594 0)"/>
       <use xlink:href="#DejaVuSans-65" transform="translate(827.71875 0)"/>
       <use xlink:href="#DejaVuSans-20" transform="translate(889.242188 0)"/>
       <use xlink:href="#DejaVuSans-33" transform="translate(921.029297 0)"/>
      </g>
     </g>
    </g>
    <g id="xtick_7">
     <g id="line2d_7">
      <g>
       <use xlink:href="#m8da9d94917" x="435.449983" y="179.43427" style="stroke: #000000; stroke-width: 0.8"/>
      </g>
     </g>
     <g id="text_7">
      <!-- OPC-AC-like 1 -->
      <g transform="translate(413.288262 240.032964) rotate(-45) scale(0.1 -0.1)">
       <defs>
        <path id="DejaVuSans-4f" d="M 2522 4238 
Q 1834 4238 1429 3725 
Q 1025 3213 1025 2328 
Q 1025 1447 1429 934 
Q 1834 422 2522 422 
Q 3209 422 3611 934 
Q 4013 1447 4013 2328 
Q 4013 3213 3611 3725 
Q 3209 4238 2522 4238 
z
M 2522 4750 
Q 3503 4750 4090 4092 
Q 4678 3434 4678 2328 
Q 4678 1225 4090 567 
Q 3503 -91 2522 -91 
Q 1538 -91 948 565 
Q 359 1222 359 2328 
Q 359 3434 948 4092 
Q 1538 4750 2522 4750 
z
" transform="scale(0.015625)"/>
       </defs>
       <use xlink:href="#DejaVuSans-4f"/>
       <use xlink:href="#DejaVuSans-50" transform="translate(78.710938 0)"/>
       <use xlink:href="#DejaVuSans-43" transform="translate(139.013672 0)"/>
       <use xlink:href="#DejaVuSans-2d" transform="translate(208.837891 0)"/>
       <use xlink:href="#DejaVuSans-41" transform="translate(242.671875 0)"/>
       <use xlink:href="#DejaVuSans-43" transform="translate(309.330078 0)"/>
       <use xlink:href="#DejaVuSans-2d" transform="translate(379.154297 0)"/>
       <use xlink:href="#DejaVuSans-6c" transform="translate(415.238281 0)"/>
       <use xlink:href="#DejaVuSans-69" transform="translate(443.021484 0)"/>
       <use xlink:href="#DejaVuSans-6b" transform="translate(470.804688 0)"/>
       <use xlink:href="#DejaVuSans-65" transform="translate(525.089844 0)"/>
       <use xlink:href="#DejaVuSans-20" transform="translate(586.613281 0)"/>
       <use xlink:href="#DejaVuSans-31" transform="translate(618.400391 0)"/>
      </g>
     </g>
    </g>
    <g id="xtick_8">
     <g id="line2d_8">
      <g>
       <use xlink:href="#m8da9d94917" x="490.864966" y="179.43427" style="stroke: #000000; stroke-width: 0.8"/>
      </g>
     </g>
     <g id="text_8">
      <!-- OPC-NPC-like -->
      <g transform="translate(469.576633 238.286189) rotate(-45) scale(0.1 -0.1)">
       <use xlink:href="#DejaVuSans-4f"/>
       <use xlink:href="#DejaVuSans-50" transform="translate(78.710938 0)"/>
       <use xlink:href="#DejaVuSans-43" transform="translate(139.013672 0)"/>
       <use xlink:href="#DejaVuSans-2d" transform="translate(208.837891 0)"/>
       <use xlink:href="#DejaVuSans-4e" transform="translate(244.921875 0)"/>
       <use xlink:href="#DejaVuSans-50" transform="translate(319.726562 0)"/>
       <use xlink:href="#DejaVuSans-43" transform="translate(380.029297 0)"/>
       <use xlink:href="#DejaVuSans-2d" transform="translate(449.853516 0)"/>
       <use xlink:href="#DejaVuSans-6c" transform="translate(485.9375 0)"/>
       <use xlink:href="#DejaVuSans-69" transform="translate(513.720703 0)"/>
       <use xlink:href="#DejaVuSans-6b" transform="translate(541.503906 0)"/>
       <use xlink:href="#DejaVuSans-65" transform="translate(595.789062 0)"/>
      </g>
     </g>
    </g>
    <g id="xtick_9">
     <g id="line2d_9">
      <g>
       <use xlink:href="#m8da9d94917" x="546.279949" y="179.43427" style="stroke: #000000; stroke-width: 0.8"/>
      </g>
     </g>
     <g id="text_9">
      <!-- OPC-like 2 -->
      <g transform="translate(530.139685 227.990051) rotate(-45) scale(0.1 -0.1)">
       <use xlink:href="#DejaVuSans-4f"/>
       <use xlink:href="#DejaVuSans-50" transform="translate(78.710938 0)"/>
       <use xlink:href="#DejaVuSans-43" transform="translate(139.013672 0)"/>
       <use xlink:href="#DejaVuSans-2d" transform="translate(208.837891 0)"/>
       <use xlink:href="#DejaVuSans-6c" transform="translate(244.921875 0)"/>
       <use xlink:href="#DejaVuSans-69" transform="translate(272.705078 0)"/>
       <use xlink:href="#DejaVuSans-6b" transform="translate(300.488281 0)"/>
       <use xlink:href="#DejaVuSans-65" transform="translate(354.773438 0)"/>
       <use xlink:href="#DejaVuSans-20" transform="translate(416.296875 0)"/>
       <use xlink:href="#DejaVuSans-32" transform="translate(448.083984 0)"/>
      </g>
     </g>
    </g>
    <g id="xtick_10">
     <g id="line2d_10">
      <g>
       <use xlink:href="#m8da9d94917" x="601.694933" y="179.43427" style="stroke: #000000; stroke-width: 0.8"/>
      </g>
     </g>
     <g id="text_10">
      <!-- Proliferative -->
      <g transform="translate(582.398099 234.303189) rotate(-45) scale(0.1 -0.1)">
       <defs>
        <path id="DejaVuSans-66" d="M 2375 4863 
L 2375 4384 
L 1825 4384 
Q 1516 4384 1395 4259 
Q 1275 4134 1275 3809 
L 1275 3500 
L 2222 3500 
L 2222 3053 
L 1275 3053 
L 1275 0 
L 697 0 
L 697 3053 
L 147 3053 
L 147 3500 
L 697 3500 
L 697 3744 
Q 697 4328 969 4595 
Q 1241 4863 1831 4863 
L 2375 4863 
z
" transform="scale(0.015625)"/>
        <path id="DejaVuSans-74" d="M 1172 4494 
L 1172 3500 
L 2356 3500 
L 2356 3053 
L 1172 3053 
L 1172 1153 
Q 1172 725 1289 603 
Q 1406 481 1766 481 
L 2356 481 
L 2356 0 
L 1766 0 
Q 1100 0 847 248 
Q 594 497 594 1153 
L 594 3053 
L 172 3053 
L 172 3500 
L 594 3500 
L 594 4494 
L 1172 4494 
z
" transform="scale(0.015625)"/>
        <path id="DejaVuSans-76" d="M 191 3500 
L 800 3500 
L 1894 563 
L 2988 3500 
L 3597 3500 
L 2284 0 
L 1503 0 
L 191 3500 
z
" transform="scale(0.015625)"/>
       </defs>
       <use xlink:href="#DejaVuSans-50"/>
       <use xlink:href="#DejaVuSans-72" transform="translate(58.552734 0)"/>
       <use xlink:href="#DejaVuSans-6f" transform="translate(97.416016 0)"/>
       <use xlink:href="#DejaVuSans-6c" transform="translate(158.597656 0)"/>
       <use xlink:href="#DejaVuSans-69" transform="translate(186.380859 0)"/>
       <use xlink:href="#DejaVuSans-66" transform="translate(214.164062 0)"/>
       <use xlink:href="#DejaVuSans-65" transform="translate(249.369141 0)"/>
       <use xlink:href="#DejaVuSans-72" transform="translate(310.892578 0)"/>
       <use xlink:href="#DejaVuSans-61" transform="translate(352.005859 0)"/>
       <use xlink:href="#DejaVuSans-74" transform="translate(413.285156 0)"/>
       <use xlink:href="#DejaVuSans-69" transform="translate(452.494141 0)"/>
       <use xlink:href="#DejaVuSans-76" transform="translate(480.277344 0)"/>
       <use xlink:href="#DejaVuSans-65" transform="translate(539.457031 0)"/>
      </g>
     </g>
    </g>
    <g id="xtick_11">
     <g id="line2d_11">
      <g>
       <use xlink:href="#m8da9d94917" x="657.109916" y="179.43427" style="stroke: #000000; stroke-width: 0.8"/>
      </g>
     </g>
     <g id="text_11">
      <!-- Proliferative 2 -->
      <g transform="translate(634.439962 241.04943) rotate(-45) scale(0.1 -0.1)">
       <use xlink:href="#DejaVuSans-50"/>
       <use xlink:href="#DejaVuSans-72" transform="translate(58.552734 0)"/>
       <use xlink:href="#DejaVuSans-6f" transform="translate(97.416016 0)"/>
       <use xlink:href="#DejaVuSans-6c" transform="translate(158.597656 0)"/>
       <use xlink:href="#DejaVuSans-69" transform="translate(186.380859 0)"/>
       <use xlink:href="#DejaVuSans-66" transform="translate(214.164062 0)"/>
       <use xlink:href="#DejaVuSans-65" transform="translate(249.369141 0)"/>
       <use xlink:href="#DejaVuSans-72" transform="translate(310.892578 0)"/>
       <use xlink:href="#DejaVuSans-61" transform="translate(352.005859 0)"/>
       <use xlink:href="#DejaVuSans-74" transform="translate(413.285156 0)"/>
       <use xlink:href="#DejaVuSans-69" transform="translate(452.494141 0)"/>
       <use xlink:href="#DejaVuSans-76" transform="translate(480.277344 0)"/>
       <use xlink:href="#DejaVuSans-65" transform="translate(539.457031 0)"/>
       <use xlink:href="#DejaVuSans-20" transform="translate(600.980469 0)"/>
       <use xlink:href="#DejaVuSans-32" transform="translate(632.767578 0)"/>
      </g>
     </g>
    </g>
    <g id="text_12">
     <!-- Gene set annotation -->
     <g transform="translate(328.956875 274.500781) scale(0.1 -0.1)">
      <defs>
       <path id="DejaVuSans-47" d="M 3809 666 
L 3809 1919 
L 2778 1919 
L 2778 2438 
L 4434 2438 
L 4434 434 
Q 4069 175 3628 42 
Q 3188 -91 2688 -91 
Q 1594 -91 976 548 
Q 359 1188 359 2328 
Q 359 3472 976 4111 
Q 1594 4750 2688 4750 
Q 3144 4750 3555 4637 
Q 3966 4525 4313 4306 
L 4313 3634 
Q 3963 3931 3569 4081 
Q 3175 4231 2741 4231 
Q 1884 4231 1454 3753 
Q 1025 3275 1025 2328 
Q 1025 1384 1454 906 
Q 1884 428 2741 428 
Q 3075 428 3337 486 
Q 3600 544 3809 666 
z
" transform="scale(0.015625)"/>
      </defs>
      <use xlink:href="#DejaVuSans-47"/>
      <use xlink:href="#DejaVuSans-65" transform="translate(77.490234 0)"/>
      <use xlink:href="#DejaVuSans-6e" transform="translate(139.013672 0)"/>
      <use xlink:href="#DejaVuSans-65" transform="translate(202.392578 0)"/>
      <use xlink:href="#DejaVuSans-20" transform="translate(263.916016 0)"/>
      <use xlink:href="#DejaVuSans-73" transform="translate(295.703125 0)"/>
      <use xlink:href="#DejaVuSans-65" transform="translate(347.802734 0)"/>
      <use xlink:href="#DejaVuSans-74" transform="translate(409.326172 0)"/>
      <use xlink:href="#DejaVuSans-20" transform="translate(448.535156 0)"/>
      <use xlink:href="#DejaVuSans-61" transform="translate(480.322266 0)"/>
      <use xlink:href="#DejaVuSans-6e" transform="translate(541.601562 0)"/>
      <use xlink:href="#DejaVuSans-6e" transform="translate(604.980469 0)"/>
      <use xlink:href="#DejaVuSans-6f" transform="translate(668.359375 0)"/>
      <use xlink:href="#DejaVuSans-74" transform="translate(729.541016 0)"/>
      <use xlink:href="#DejaVuSans-61" transform="translate(768.75 0)"/>
      <use xlink:href="#DejaVuSans-74" transform="translate(830.029297 0)"/>
      <use xlink:href="#DejaVuSans-69" transform="translate(869.238281 0)"/>
      <use xlink:href="#DejaVuSans-6f" transform="translate(897.021484 0)"/>
      <use xlink:href="#DejaVuSans-6e" transform="translate(958.203125 0)"/>
     </g>
    </g>
   </g>
   <g id="matplotlib.axis_2">
    <g id="ytick_1">
     <g id="line2d_12">
      <defs>
       <path id="med0ecfdbc9" d="M 0 0 
L -3.5 0 
" style="stroke: #000000; stroke-width: 0.8"/>
      </defs>
      <g>
       <use xlink:href="#med0ecfdbc9" x="50.87" y="179.43427" style="stroke: #000000; stroke-width: 0.8"/>
      </g>
     </g>
     <g id="text_13">
      <!-- 0 -->
      <g transform="translate(37.5075 183.233488) scale(0.1 -0.1)">
       <defs>
        <path id="DejaVuSans-30" d="M 2034 4250 
Q 1547 4250 1301 3770 
Q 1056 3291 1056 2328 
Q 1056 1369 1301 889 
Q 1547 409 2034 409 
Q 2525 409 2770 889 
Q 3016 1369 3016 2328 
Q 3016 3291 2770 3770 
Q 2525 4250 2034 4250 
z
M 2034 4750 
Q 2819 4750 3233 4129 
Q 3647 3509 3647 2328 
Q 3647 1150 3233 529 
Q 2819 -91 2034 -91 
Q 1250 -91 836 529 
Q 422 1150 422 2328 
Q 422 3509 836 4129 
Q 1250 4750 2034 4750 
z
" transform="scale(0.015625)"/>
       </defs>
       <use xlink:href="#DejaVuSans-30"/>
      </g>
     </g>
    </g>
    <g id="ytick_2">
     <g id="line2d_13">
      <g>
       <use xlink:href="#med0ecfdbc9" x="50.87" y="151.69713" style="stroke: #000000; stroke-width: 0.8"/>
      </g>
     </g>
     <g id="text_14">
      <!-- 20 -->
      <g transform="translate(31.145 155.496348) scale(0.1 -0.1)">
       <use xlink:href="#DejaVuSans-32"/>
       <use xlink:href="#DejaVuSans-30" transform="translate(63.623047 0)"/>
      </g>
     </g>
    </g>
    <g id="ytick_3">
     <g id="line2d_14">
      <g>
       <use xlink:href="#med0ecfdbc9" x="50.87" y="123.95999" style="stroke: #000000; stroke-width: 0.8"/>
      </g>
     </g>
     <g id="text_15">
      <!-- 40 -->
      <g transform="translate(31.145 127.759208) scale(0.1 -0.1)">
       <defs>
        <path id="DejaVuSans-34" d="M 2419 4116 
L 825 1625 
L 2419 1625 
L 2419 4116 
z
M 2253 4666 
L 3047 4666 
L 3047 1625 
L 3713 1625 
L 3713 1100 
L 3047 1100 
L 3047 0 
L 2419 0 
L 2419 1100 
L 313 1100 
L 313 1709 
L 2253 4666 
z
" transform="scale(0.015625)"/>
       </defs>
       <use xlink:href="#DejaVuSans-34"/>
       <use xlink:href="#DejaVuSans-30" transform="translate(63.623047 0)"/>
      </g>
     </g>
    </g>
    <g id="ytick_4">
     <g id="line2d_15">
      <g>
       <use xlink:href="#med0ecfdbc9" x="50.87" y="96.22285" style="stroke: #000000; stroke-width: 0.8"/>
      </g>
     </g>
     <g id="text_16">
      <!-- 60 -->
      <g transform="translate(31.145 100.022069) scale(0.1 -0.1)">
       <defs>
        <path id="DejaVuSans-36" d="M 2113 2584 
Q 1688 2584 1439 2293 
Q 1191 2003 1191 1497 
Q 1191 994 1439 701 
Q 1688 409 2113 409 
Q 2538 409 2786 701 
Q 3034 994 3034 1497 
Q 3034 2003 2786 2293 
Q 2538 2584 2113 2584 
z
M 3366 4563 
L 3366 3988 
Q 3128 4100 2886 4159 
Q 2644 4219 2406 4219 
Q 1781 4219 1451 3797 
Q 1122 3375 1075 2522 
Q 1259 2794 1537 2939 
Q 1816 3084 2150 3084 
Q 2853 3084 3261 2657 
Q 3669 2231 3669 1497 
Q 3669 778 3244 343 
Q 2819 -91 2113 -91 
Q 1303 -91 875 529 
Q 447 1150 447 2328 
Q 447 3434 972 4092 
Q 1497 4750 2381 4750 
Q 2619 4750 2861 4703 
Q 3103 4656 3366 4563 
z
" transform="scale(0.015625)"/>
       </defs>
       <use xlink:href="#DejaVuSans-36"/>
       <use xlink:href="#DejaVuSans-30" transform="translate(63.623047 0)"/>
      </g>
     </g>
    </g>
    <g id="ytick_5">
     <g id="line2d_16">
      <g>
       <use xlink:href="#med0ecfdbc9" x="50.87" y="68.48571" style="stroke: #000000; stroke-width: 0.8"/>
      </g>
     </g>
     <g id="text_17">
      <!-- 80 -->
      <g transform="translate(31.145 72.284929) scale(0.1 -0.1)">
       <defs>
        <path id="DejaVuSans-38" d="M 2034 2216 
Q 1584 2216 1326 1975 
Q 1069 1734 1069 1313 
Q 1069 891 1326 650 
Q 1584 409 2034 409 
Q 2484 409 2743 651 
Q 3003 894 3003 1313 
Q 3003 1734 2745 1975 
Q 2488 2216 2034 2216 
z
M 1403 2484 
Q 997 2584 770 2862 
Q 544 3141 544 3541 
Q 544 4100 942 4425 
Q 1341 4750 2034 4750 
Q 2731 4750 3128 4425 
Q 3525 4100 3525 3541 
Q 3525 3141 3298 2862 
Q 3072 2584 2669 2484 
Q 3125 2378 3379 2068 
Q 3634 1759 3634 1313 
Q 3634 634 3220 271 
Q 2806 -91 2034 -91 
Q 1263 -91 848 271 
Q 434 634 434 1313 
Q 434 1759 690 2068 
Q 947 2378 1403 2484 
z
M 1172 3481 
Q 1172 3119 1398 2916 
Q 1625 2713 2034 2713 
Q 2441 2713 2670 2916 
Q 2900 3119 2900 3481 
Q 2900 3844 2670 4047 
Q 2441 4250 2034 4250 
Q 1625 4250 1398 4047 
Q 1172 3844 1172 3481 
z
" transform="scale(0.015625)"/>
       </defs>
       <use xlink:href="#DejaVuSans-38"/>
       <use xlink:href="#DejaVuSans-30" transform="translate(63.623047 0)"/>
      </g>
     </g>
    </g>
    <g id="ytick_6">
     <g id="line2d_17">
      <g>
       <use xlink:href="#med0ecfdbc9" x="50.87" y="40.74857" style="stroke: #000000; stroke-width: 0.8"/>
      </g>
     </g>
     <g id="text_18">
      <!-- 100 -->
      <g transform="translate(24.7825 44.547789) scale(0.1 -0.1)">
       <use xlink:href="#DejaVuSans-31"/>
       <use xlink:href="#DejaVuSans-30" transform="translate(63.623047 0)"/>
       <use xlink:href="#DejaVuSans-30" transform="translate(127.246094 0)"/>
      </g>
     </g>
    </g>
    <g id="text_19">
     <!-- % GO terms matched -->
     <g transform="translate(18.702813 157.028229) rotate(-90) scale(0.1 -0.1)">
      <defs>
       <path id="DejaVuSans-25" d="M 4653 2053 
Q 4381 2053 4226 1822 
Q 4072 1591 4072 1178 
Q 4072 772 4226 539 
Q 4381 306 4653 306 
Q 4919 306 5073 539 
Q 5228 772 5228 1178 
Q 5228 1588 5073 1820 
Q 4919 2053 4653 2053 
z
M 4653 2450 
Q 5147 2450 5437 2106 
Q 5728 1763 5728 1178 
Q 5728 594 5436 251 
Q 5144 -91 4653 -91 
Q 4153 -91 3862 251 
Q 3572 594 3572 1178 
Q 3572 1766 3864 2108 
Q 4156 2450 4653 2450 
z
M 1428 4353 
Q 1159 4353 1004 4120 
Q 850 3888 850 3481 
Q 850 3069 1003 2837 
Q 1156 2606 1428 2606 
Q 1700 2606 1854 2837 
Q 2009 3069 2009 3481 
Q 2009 3884 1853 4118 
Q 1697 4353 1428 4353 
z
M 4250 4750 
L 4750 4750 
L 1831 -91 
L 1331 -91 
L 4250 4750 
z
M 1428 4750 
Q 1922 4750 2215 4408 
Q 2509 4066 2509 3481 
Q 2509 2891 2217 2550 
Q 1925 2209 1428 2209 
Q 931 2209 642 2551 
Q 353 2894 353 3481 
Q 353 4063 643 4406 
Q 934 4750 1428 4750 
z
" transform="scale(0.015625)"/>
       <path id="DejaVuSans-6d" d="M 3328 2828 
Q 3544 3216 3844 3400 
Q 4144 3584 4550 3584 
Q 5097 3584 5394 3201 
Q 5691 2819 5691 2113 
L 5691 0 
L 5113 0 
L 5113 2094 
Q 5113 2597 4934 2840 
Q 4756 3084 4391 3084 
Q 3944 3084 3684 2787 
Q 3425 2491 3425 1978 
L 3425 0 
L 2847 0 
L 2847 2094 
Q 2847 2600 2669 2842 
Q 2491 3084 2119 3084 
Q 1678 3084 1418 2786 
Q 1159 2488 1159 1978 
L 1159 0 
L 581 0 
L 581 3500 
L 1159 3500 
L 1159 2956 
Q 1356 3278 1631 3431 
Q 1906 3584 2284 3584 
Q 2666 3584 2933 3390 
Q 3200 3197 3328 2828 
z
" transform="scale(0.015625)"/>
       <path id="DejaVuSans-63" d="M 3122 3366 
L 3122 2828 
Q 2878 2963 2633 3030 
Q 2388 3097 2138 3097 
Q 1578 3097 1268 2742 
Q 959 2388 959 1747 
Q 959 1106 1268 751 
Q 1578 397 2138 397 
Q 2388 397 2633 464 
Q 2878 531 3122 666 
L 3122 134 
Q 2881 22 2623 -34 
Q 2366 -91 2075 -91 
Q 1284 -91 818 406 
Q 353 903 353 1747 
Q 353 2603 823 3093 
Q 1294 3584 2113 3584 
Q 2378 3584 2631 3529 
Q 2884 3475 3122 3366 
z
" transform="scale(0.015625)"/>
       <path id="DejaVuSans-68" d="M 3513 2113 
L 3513 0 
L 2938 0 
L 2938 2094 
Q 2938 2591 2744 2837 
Q 2550 3084 2163 3084 
Q 1697 3084 1428 2787 
Q 1159 2491 1159 1978 
L 1159 0 
L 581 0 
L 581 4863 
L 1159 4863 
L 1159 2956 
Q 1366 3272 1645 3428 
Q 1925 3584 2291 3584 
Q 2894 3584 3203 3211 
Q 3513 2838 3513 2113 
z
" transform="scale(0.015625)"/>
       <path id="DejaVuSans-64" d="M 2906 2969 
L 2906 4863 
L 3481 4863 
L 3481 0 
L 2906 0 
L 2906 525 
Q 2725 213 2448 61 
Q 2172 -91 1784 -91 
Q 1150 -91 751 415 
Q 353 922 353 1747 
Q 353 2572 751 3078 
Q 1150 3584 1784 3584 
Q 2172 3584 2448 3432 
Q 2725 3281 2906 2969 
z
M 947 1747 
Q 947 1113 1208 752 
Q 1469 391 1925 391 
Q 2381 391 2643 752 
Q 2906 1113 2906 1747 
Q 2906 2381 2643 2742 
Q 2381 3103 1925 3103 
Q 1469 3103 1208 2742 
Q 947 2381 947 1747 
z
" transform="scale(0.015625)"/>
      </defs>
      <use xlink:href="#DejaVuSans-25"/>
      <use xlink:href="#DejaVuSans-20" transform="translate(95.019531 0)"/>
      <use xlink:href="#DejaVuSans-47" transform="translate(126.806641 0)"/>
      <use xlink:href="#DejaVuSans-4f" transform="translate(204.296875 0)"/>
      <use xlink:href="#DejaVuSans-20" transform="translate(283.007812 0)"/>
      <use xlink:href="#DejaVuSans-74" transform="translate(314.794922 0)"/>
      <use xlink:href="#DejaVuSans-65" transform="translate(354.003906 0)"/>
      <use xlink:href="#DejaVuSans-72" transform="translate(415.527344 0)"/>
      <use xlink:href="#DejaVuSans-6d" transform="translate(454.890625 0)"/>
      <use xlink:href="#DejaVuSans-73" transform="translate(552.302734 0)"/>
      <use xlink:href="#DejaVuSans-20" transform="translate(604.402344 0)"/>
      <use xlink:href="#DejaVuSans-6d" transform="translate(636.189453 0)"/>
      <use xlink:href="#DejaVuSans-61" transform="translate(733.601562 0)"/>
      <use xlink:href="#DejaVuSans-74" transform="translate(794.880859 0)"/>
      <use xlink:href="#DejaVuSans-63" transform="translate(834.089844 0)"/>
      <use xlink:href="#DejaVuSans-68" transform="translate(889.070312 0)"/>
      <use xlink:href="#DejaVuSans-65" transform="translate(952.449219 0)"/>
      <use xlink:href="#DejaVuSans-64" transform="translate(1013.972656 0)"/>
     </g>
    </g>
   </g>
   <g id="patch_14">
    <path d="M 50.87 179.43427 
L 50.87 26.88 
" style="fill: none; stroke: #000000; stroke-width: 0.8; stroke-linejoin: miter; stroke-linecap: square"/>
   </g>
   <g id="patch_15">
    <path d="M 709.2 179.43427 
L 709.2 26.88 
" style="fill: none; stroke: #000000; stroke-width: 0.8; stroke-linejoin: miter; stroke-linecap: square"/>
   </g>
   <g id="patch_16">
    <path d="M 50.87 179.43427 
L 709.2 179.43427 
" style="fill: none; stroke: #000000; stroke-width: 0.8; stroke-linejoin: miter; stroke-linecap: square"/>
   </g>
   <g id="patch_17">
    <path d="M 50.87 26.88 
L 709.2 26.88 
" style="fill: none; stroke: #000000; stroke-width: 0.8; stroke-linejoin: miter; stroke-linecap: square"/>
   </g>
   <g id="text_20">
    <!-- GO coverage reported in comparison files -->
    <g transform="translate(254.680938 20.88) scale(0.12 -0.12)">
     <defs>
      <path id="DejaVuSans-70" d="M 1159 525 
L 1159 -1331 
L 581 -1331 
L 581 3500 
L 1159 3500 
L 1159 2969 
Q 1341 3281 1617 3432 
Q 1894 3584 2278 3584 
Q 2916 3584 3314 3078 
Q 3713 2572 3713 1747 
Q 3713 922 3314 415 
Q 2916 -91 2278 -91 
Q 1894 -91 1617 61 
Q 1341 213 1159 525 
z
M 3116 1747 
Q 3116 2381 2855 2742 
Q 2594 3103 2138 3103 
Q 1681 3103 1420 2742 
Q 1159 2381 1159 1747 
Q 1159 1113 1420 752 
Q 1681 391 2138 391 
Q 2594 391 2855 752 
Q 3116 1113 3116 1747 
z
" transform="scale(0.015625)"/>
     </defs>
     <use xlink:href="#DejaVuSans-47"/>
     <use xlink:href="#DejaVuSans-4f" transform="translate(77.490234 0)"/>
     <use xlink:href="#DejaVuSans-20" transform="translate(156.201172 0)"/>
     <use xlink:href="#DejaVuSans-63" transform="translate(187.988281 0)"/>
     <use xlink:href="#DejaVuSans-6f" transform="translate(242.96875 0)"/>
     <use xlink:href="#DejaVuSans-76" transform="translate(304.150391 0)"/>
     <use xlink:href="#DejaVuSans-65" transform="translate(363.330078 0)"/>
     <use xlink:href="#DejaVuSans-72" transform="translate(424.853516 0)"/>
     <use xlink:href="#DejaVuSans-61" transform="translate(465.966797 0)"/>
     <use xlink:href="#DejaVuSans-67" transform="translate(527.246094 0)"/>
     <use xlink:href="#DejaVuSans-65" transform="translate(590.722656 0)"/>
     <use xlink:href="#DejaVuSans-20" transform="translate(652.246094 0)"/>
     <use xlink:href="#DejaVuSans-72" transform="translate(684.033203 0)"/>
     <use xlink:href="#DejaVuSans-65" transform="translate(722.896484 0)"/>
     <use xlink:href="#DejaVuSans-70" transform="translate(784.419922 0)"/>
     <use xlink:href="#DejaVuSans-6f" transform="translate(847.896484 0)"/>
     <use xlink:href="#DejaVuSans-72" transform="translate(909.078125 0)"/>
     <use xlink:href="#DejaVuSans-74" transform="translate(950.191406 0)"/>
     <use xlink:href="#DejaVuSans-65" transform="translate(989.400391 0)"/>
     <use xlink:href="#DejaVuSans-64" transform="translate(1050.923828 0)"/>
     <use xlink:href="#DejaVuSans-20" transform="translate(1114.400391 0)"/>
     <use xlink:href="#DejaVuSans-69" transform="translate(1146.1875 0)"/>
     <use xlink:href="#DejaVuSans-6e" transform="translate(1173.970703 0)"/>
     <use xlink:href="#DejaVuSans-20" transform="translate(1237.349609 0)"/>
     <use xlink:href="#DejaVuSans-63" transform="translate(1269.136719 0)"/>
     <use xlink:href="#DejaVuSans-6f" transform="translate(1324.117188 0)"/>
     <use xlink:href="#DejaVuSans-6d" transform="translate(1385.298828 0)"/>
     <use xlink:href="#DejaVuSans-70" transform="translate(1482.710938 0)"/>
     <use xlink:href="#DejaVuSans-61" transform="translate(1546.1875 0)"/>
     <use xlink:href="#DejaVuSans-72" transform="translate(1607.466797 0)"/>
     <use xlink:href="#DejaVuSans-69" transform="translate(1648.580078 0)"/>
     <use xlink:href="#DejaVuSans-73" transform="translate(1676.363281 0)"/>
     <use xlink:href="#DejaVuSans-6f" transform="translate(1728.462891 0)"/>
     <use xlink:href="#DejaVuSans-6e" transform="translate(1789.644531 0)"/>
     <use xlink:href="#DejaVuSans-20" transform="translate(1853.023438 0)"/>
     <use xlink:href="#DejaVuSans-66" transform="translate(1884.810547 0)"/>
     <use xlink:href="#DejaVuSans-69" transform="translate(1920.015625 0)"/>
     <use xlink:href="#DejaVuSans-6c" transform="translate(1947.798828 0)"/>
     <use xlink:href="#DejaVuSans-65" transform="translate(1975.582031 0)"/>
     <use xlink:href="#DejaVuSans-73" transform="translate(2037.105469 0)"/>
    </g>
   </g>
  </g>
 </g>
 <defs>
  <clipPath id="ped6357c65d">
   <rect x="50.87" y="26.88" width="658.33" height="152.55427"/>
  </clipPath>
 </defs>
</svg>
